<mxfile host="app.diagrams.net" modified="2022-04-27T01:14:14.815Z" agent="5.0 (Windows NT 10.0; Win64; x64) AppleWebKit/537.36 (KHTML, like Gecko) Chrome/99.0.4844.51 Safari/537.36 Edg/99.0.1150.39" etag="gk24OL6JnyRXB5V1_jGw" version="17.4.6" type="github">
  <diagram id="TUXx3Iv20sTB1oDl7bzB" name="Page-1">
    <mxGraphModel dx="1422" dy="762" grid="1" gridSize="10" guides="1" tooltips="1" connect="1" arrows="1" fold="1" page="1" pageScale="1" pageWidth="827" pageHeight="1169" math="0" shadow="0">
      <root>
        <mxCell id="0" />
        <mxCell id="1" parent="0" />
        <mxCell id="-zF653ndgEqidSxvIuMm-2" style="edgeStyle=orthogonalEdgeStyle;rounded=0;orthogonalLoop=1;jettySize=auto;html=1;exitX=1;exitY=0.5;exitDx=0;exitDy=0;" parent="1" source="-zF653ndgEqidSxvIuMm-1" edge="1">
          <mxGeometry relative="1" as="geometry">
            <mxPoint x="370" y="190" as="targetPoint" />
          </mxGeometry>
        </mxCell>
        <mxCell id="RATjW7fSsyBsCU83YSmR-9" style="edgeStyle=orthogonalEdgeStyle;rounded=0;orthogonalLoop=1;jettySize=auto;html=1;exitX=0.5;exitY=1;exitDx=0;exitDy=0;entryX=0.5;entryY=0;entryDx=0;entryDy=0;" edge="1" parent="1" source="-zF653ndgEqidSxvIuMm-1" target="RATjW7fSsyBsCU83YSmR-5">
          <mxGeometry relative="1" as="geometry">
            <Array as="points">
              <mxPoint x="230" y="240" />
              <mxPoint x="230" y="240" />
            </Array>
          </mxGeometry>
        </mxCell>
        <mxCell id="-zF653ndgEqidSxvIuMm-1" value="豆瓣、B站" style="whiteSpace=wrap;html=1;aspect=fixed;" parent="1" vertex="1">
          <mxGeometry x="190" y="150" width="80" height="80" as="geometry" />
        </mxCell>
        <mxCell id="RATjW7fSsyBsCU83YSmR-3" style="edgeStyle=orthogonalEdgeStyle;rounded=0;orthogonalLoop=1;jettySize=auto;html=1;exitX=1;exitY=0.5;exitDx=0;exitDy=0;entryX=0;entryY=0.5;entryDx=0;entryDy=0;" edge="1" parent="1" source="RATjW7fSsyBsCU83YSmR-1" target="RATjW7fSsyBsCU83YSmR-2">
          <mxGeometry relative="1" as="geometry" />
        </mxCell>
        <mxCell id="RATjW7fSsyBsCU83YSmR-13" style="edgeStyle=orthogonalEdgeStyle;rounded=0;orthogonalLoop=1;jettySize=auto;html=1;exitX=0.5;exitY=1;exitDx=0;exitDy=0;" edge="1" parent="1" source="RATjW7fSsyBsCU83YSmR-1">
          <mxGeometry relative="1" as="geometry">
            <mxPoint x="410" y="270" as="targetPoint" />
          </mxGeometry>
        </mxCell>
        <mxCell id="RATjW7fSsyBsCU83YSmR-1" value="四象限" style="whiteSpace=wrap;html=1;aspect=fixed;" vertex="1" parent="1">
          <mxGeometry x="370" y="150" width="80" height="80" as="geometry" />
        </mxCell>
        <mxCell id="RATjW7fSsyBsCU83YSmR-15" style="edgeStyle=orthogonalEdgeStyle;rounded=0;orthogonalLoop=1;jettySize=auto;html=1;exitX=0.5;exitY=1;exitDx=0;exitDy=0;" edge="1" parent="1" source="RATjW7fSsyBsCU83YSmR-2">
          <mxGeometry relative="1" as="geometry">
            <mxPoint x="560" y="270" as="targetPoint" />
          </mxGeometry>
        </mxCell>
        <mxCell id="RATjW7fSsyBsCU83YSmR-2" value="&lt;div class=&quot;mind-clipboard&quot;&gt;练习应用&lt;div&gt;博客&lt;/div&gt;&lt;div&gt;GitHub&lt;/div&gt;&lt;/div&gt;" style="whiteSpace=wrap;html=1;aspect=fixed;" vertex="1" parent="1">
          <mxGeometry x="520" y="150" width="80" height="80" as="geometry" />
        </mxCell>
        <mxCell id="RATjW7fSsyBsCU83YSmR-4" style="edgeStyle=orthogonalEdgeStyle;rounded=0;orthogonalLoop=1;jettySize=auto;html=1;exitX=1;exitY=0.5;exitDx=0;exitDy=0;" edge="1" parent="1" source="RATjW7fSsyBsCU83YSmR-5">
          <mxGeometry relative="1" as="geometry">
            <mxPoint x="370" y="310" as="targetPoint" />
          </mxGeometry>
        </mxCell>
        <mxCell id="RATjW7fSsyBsCU83YSmR-10" style="edgeStyle=orthogonalEdgeStyle;rounded=0;orthogonalLoop=1;jettySize=auto;html=1;exitX=0.5;exitY=0;exitDx=0;exitDy=0;entryX=0.5;entryY=1;entryDx=0;entryDy=0;" edge="1" parent="1" source="RATjW7fSsyBsCU83YSmR-5" target="-zF653ndgEqidSxvIuMm-1">
          <mxGeometry relative="1" as="geometry" />
        </mxCell>
        <mxCell id="RATjW7fSsyBsCU83YSmR-5" value="信息输入" style="whiteSpace=wrap;html=1;aspect=fixed;" vertex="1" parent="1">
          <mxGeometry x="190" y="270" width="80" height="80" as="geometry" />
        </mxCell>
        <mxCell id="RATjW7fSsyBsCU83YSmR-6" style="edgeStyle=orthogonalEdgeStyle;rounded=0;orthogonalLoop=1;jettySize=auto;html=1;exitX=1;exitY=0.5;exitDx=0;exitDy=0;entryX=0;entryY=0.5;entryDx=0;entryDy=0;" edge="1" parent="1" source="RATjW7fSsyBsCU83YSmR-7" target="RATjW7fSsyBsCU83YSmR-8">
          <mxGeometry relative="1" as="geometry" />
        </mxCell>
        <mxCell id="RATjW7fSsyBsCU83YSmR-12" style="edgeStyle=orthogonalEdgeStyle;rounded=0;orthogonalLoop=1;jettySize=auto;html=1;exitX=0.5;exitY=0;exitDx=0;exitDy=0;entryX=0.5;entryY=1;entryDx=0;entryDy=0;" edge="1" parent="1" source="RATjW7fSsyBsCU83YSmR-7" target="RATjW7fSsyBsCU83YSmR-1">
          <mxGeometry relative="1" as="geometry" />
        </mxCell>
        <mxCell id="RATjW7fSsyBsCU83YSmR-7" value="信息处理" style="whiteSpace=wrap;html=1;aspect=fixed;" vertex="1" parent="1">
          <mxGeometry x="370" y="270" width="80" height="80" as="geometry" />
        </mxCell>
        <mxCell id="RATjW7fSsyBsCU83YSmR-14" style="edgeStyle=orthogonalEdgeStyle;rounded=0;orthogonalLoop=1;jettySize=auto;html=1;exitX=0.5;exitY=0;exitDx=0;exitDy=0;entryX=0.5;entryY=1;entryDx=0;entryDy=0;" edge="1" parent="1" source="RATjW7fSsyBsCU83YSmR-8" target="RATjW7fSsyBsCU83YSmR-2">
          <mxGeometry relative="1" as="geometry" />
        </mxCell>
        <mxCell id="RATjW7fSsyBsCU83YSmR-8" value="&lt;div class=&quot;mind-clipboard&quot;&gt;输出&lt;/div&gt;" style="whiteSpace=wrap;html=1;aspect=fixed;" vertex="1" parent="1">
          <mxGeometry x="520" y="270" width="80" height="80" as="geometry" />
        </mxCell>
      </root>
    </mxGraphModel>
  </diagram>
</mxfile>
